<svg width="14602" height="5938" xmlns="http://www.w3.org/2000/svg" xmlns:xlink="http://www.w3.org/1999/xlink" xml:space="preserve" overflow="hidden"><g transform="translate(-294 -768)"><path d="M6129.5 4259.17C6129.5 4217.38 6163.38 4183.5 6205.17 4183.5L9008.83 4183.5C9050.62 4183.5 9084.5 4217.38 9084.5 4259.17L9084.5 4561.83C9084.5 4603.62 9050.62 4637.5 9008.83 4637.5L6205.17 4637.5C6163.38 4637.5 6129.5 4603.62 6129.5 4561.83Z" stroke="#000000" stroke-width="9.16667" stroke-linejoin="round" stroke-miterlimit="10" fill="none" fill-rule="evenodd"/><text font-family="Arial,Arial_MSFontService,sans-serif" font-weight="400" font-size="138" transform="matrix(1 0 0 1 7093 4379)">Study</text><text font-family="Arial,Arial_MSFontService,sans-serif" font-weight="400" font-size="138" transform="matrix(1 0 0 1 7483.73 4379)">population </text><text font-family="Arial,Arial_MSFontService,sans-serif" font-weight="400" font-size="138" transform="matrix(1 0 0 1 6431.85 4544)">(n=124,020) &amp; (n=84,926) &amp; (n=6,673) </text><path d="M4183 2723.5C4183 2601.17 4282.17 2502 4404.5 2502L10808.5 2502C10930.8 2502 11030 2601.17 11030 2723.5L11030 3609.5C11030 3731.83 10930.8 3831 10808.5 3831L4404.5 3831C4282.17 3831 4183 3731.83 4183 3609.5Z" stroke="#000000" stroke-width="10.3125" stroke-linejoin="round" stroke-miterlimit="10" fill="none" fill-rule="evenodd"/><path d="M299 1299.67C299 1214.25 368.249 1145 453.672 1145L4865.33 1145C4950.75 1145 5020 1214.25 5020 1299.67L5020 1918.33C5020 2003.75 4950.75 2073 4865.33 2073L453.672 2073C368.249 2073 299 2003.75 299 1918.33Z" stroke="#000000" stroke-width="10.3125" stroke-linejoin="round" stroke-miterlimit="10" fill="none" fill-rule="evenodd"/><text font-family="Arial,Arial_MSFontService,sans-serif" font-weight="400" font-size="138" transform="matrix(1 0 0 1 413.807 1413)">Patients who admitted to the ICU between 2014 and 2015 across multiple </text><text font-family="Arial,Arial_MSFontService,sans-serif" font-weight="400" font-size="138" transform="matrix(1 0 0 1 423.547 1578)">US hospitals included in </text><text font-family="Arial,Arial_MSFontService,sans-serif" font-weight="400" font-size="138" transform="matrix(1 0 0 1 1932.04 1578)">eICU</text><text font-family="Arial,Arial_MSFontService,sans-serif" font-weight="400" font-size="138" transform="matrix(1 0 0 1 2245.42 1578)">-</text><text font-family="Arial,Arial_MSFontService,sans-serif" font-weight="400" font-size="138" transform="matrix(1 0 0 1 2291.26 1578)">CRD, with available demographic, lab, and </text><text font-family="Arial,Arial_MSFontService,sans-serif" font-weight="400" font-size="138" transform="matrix(1 0 0 1 2157.77 1743)">vital information.</text><text font-family="Arial,Arial_MSFontService,sans-serif" font-weight="400" font-size="138" transform="matrix(1 0 0 1 2247.14 1908)">(n = 200,859)</text><path d="M5702.5 5205.5C5702.5 5046.44 5831.44 4917.5 5990.5 4917.5L7142.5 4917.5C7301.56 4917.5 7430.5 5046.44 7430.5 5205.5L7430.5 6404.5C7430.5 6563.56 7301.56 6692.5 7142.5 6692.5L5990.5 6692.5C5831.44 6692.5 5702.5 6563.56 5702.5 6404.5Z" stroke="#000000" stroke-width="9.16667" stroke-linejoin="round" stroke-miterlimit="10" fill="none" fill-rule="evenodd"/><path d="M7776.5 5214.5C7776.5 5055.44 7905.44 4926.5 8064.5 4926.5L9216.5 4926.5C9375.56 4926.5 9504.5 5055.44 9504.5 5214.5L9504.5 6413.5C9504.5 6572.56 9375.56 6701.5 9216.5 6701.5L8064.5 6701.5C7905.44 6701.5 7776.5 6572.56 7776.5 6413.5Z" stroke="#000000" stroke-width="9.16667" stroke-linejoin="round" stroke-miterlimit="10" fill="none" fill-rule="evenodd"/><path d="M5246 1299.67C5246 1214.25 5315.25 1145 5400.67 1145L9812.33 1145C9897.75 1145 9967 1214.25 9967 1299.67L9967 1918.33C9967 2003.75 9897.75 2073 9812.33 2073L5400.67 2073C5315.25 2073 5246 2003.75 5246 1918.33Z" stroke="#000000" stroke-width="10.3125" stroke-linejoin="round" stroke-miterlimit="10" fill="none" fill-rule="evenodd"/><text font-family="Arial,Arial_MSFontService,sans-serif" font-weight="400" font-size="138" transform="matrix(1 0 0 1 5327.55 1413)">Patients who admitted to the ICU at Beth Israel Deaconess Medical Center </text><text font-family="Arial,Arial_MSFontService,sans-serif" font-weight="400" font-size="138" transform="matrix(1 0 0 1 5391.42 1578)">between 2008 and 2019, identified from the </text><text font-family="Arial,Arial_MSFontService,sans-serif" font-weight="400" font-size="138" transform="matrix(1 0 0 1 8083.56 1578)">icustays</text><text font-family="Arial,Arial_MSFontService,sans-serif" font-weight="400" font-size="138" transform="matrix(1 0 0 1 8619.24 1578)">table, with available </text><text font-family="Arial,Arial_MSFontService,sans-serif" font-weight="400" font-size="138" transform="matrix(1 0 0 1 6403.49 1743)">demographic, lab, and vital information. </text><text font-family="Arial,Arial_MSFontService,sans-serif" font-weight="400" font-size="138" transform="matrix(1 0 0 1 7232.78 1908)">(n = 94,458)</text><path d="M0-5.15625 214.702-5.15625C217.55-5.15625 219.858-2.84772 219.858 0L219.858 4947.26 214.702 4942.11 403.623 4942.11 403.623 4952.42 214.702 4952.42C211.854 4952.42 209.546 4950.11 209.546 4947.26L209.546 0 214.702 5.15625 0 5.15625ZM398.467 4931.79 429.404 4947.26 398.467 4962.73Z" transform="matrix(1.83697e-16 1 1 -1.83697e-16 2659 2073)"/><path d="M7612.16 2073 7612.16 2287.7C7612.16 2290.55 7609.85 2292.86 7607 2292.86L7607 2292.86 7612.16 2287.7 7612.16 2476.62 7601.84 2476.62 7601.84 2287.7C7601.84 2284.85 7604.15 2282.55 7607 2282.55L7607 2282.55 7601.84 2287.7 7601.84 2073ZM7622.47 2471.47 7607 2502.4 7591.53 2471.47Z"/><text font-family="Arial,Arial_MSFontService,sans-serif" font-weight="700" font-size="128" transform="matrix(1 0 0 1 4651.23 2986)">Excluded (N = 76,839)</text><text font-family="Arial,Arial_MSFontService,sans-serif" font-weight="400" font-size="128" transform="matrix(1 0 0 1 4761.8 3140)">-</text><text font-family="Arial,Arial_MSFontService,sans-serif" font-weight="400" font-size="128" transform="matrix(1 0 0 1 4864.92 3140)">Age &lt; 18 (n=625)</text><text font-family="Arial,Arial_MSFontService,sans-serif" font-weight="400" font-size="128" transform="matrix(1 0 0 1 4630.03 3294)">-</text><text font-family="Arial,Arial_MSFontService,sans-serif" font-weight="400" font-size="128" transform="matrix(1 0 0 1 4733.15 3294)">LOS &gt; 60 days (n=52)</text><text font-family="Arial,Arial_MSFontService,sans-serif" font-weight="400" font-size="128" transform="matrix(1 0 0 1 4792.16 3448)">-</text><text font-family="Arial,Arial_MSFontService,sans-serif" font-weight="400" font-size="128" transform="matrix(1 0 0 1 4895.29 3448)">DNR</text><text font-family="Arial,Arial_MSFontService,sans-serif" font-weight="400" font-size="128" transform="matrix(1 0 0 1 5209.25 3448)">(n=28,078)</text><text font-family="Arial,Arial_MSFontService,sans-serif" font-weight="400" font-size="128" transform="matrix(1 0 0 1 4509.72 3602)">-</text><text font-family="Arial,Arial_MSFontService,sans-serif" font-weight="400" font-size="128" transform="matrix(1 0 0 1 4612.84 3602)">Missing values (n=48,084)</text><text font-family="Arial,Arial_MSFontService,sans-serif" font-weight="700" font-size="128" transform="matrix(1 0 0 1 6944.03 2989)">Excluded (N = 10,432)</text><text font-family="Arial,Arial_MSFontService,sans-serif" font-weight="400" font-size="128" transform="matrix(1 0 0 1 7126.22 3143)">-</text><text font-family="Arial,Arial_MSFontService,sans-serif" font-weight="400" font-size="128" transform="matrix(1 0 0 1 7229.34 3143)">Age &lt; 18 (n=0)</text><text font-family="Arial,Arial_MSFontService,sans-serif" font-weight="400" font-size="128" transform="matrix(1 0 0 1 6922.83 3297)">-</text><text font-family="Arial,Arial_MSFontService,sans-serif" font-weight="400" font-size="128" transform="matrix(1 0 0 1 7025.95 3297)">LOS &gt; 60 days (n=72)</text><text font-family="Arial,Arial_MSFontService,sans-serif" font-weight="400" font-size="128" transform="matrix(1 0 0 1 7120.78 3451)">-</text><text font-family="Arial,Arial_MSFontService,sans-serif" font-weight="400" font-size="128" transform="matrix(1 0 0 1 7223.91 3451)">DNR</text><text font-family="Arial,Arial_MSFontService,sans-serif" font-weight="400" font-size="128" transform="matrix(1 0 0 1 7537.87 3451)">(n=5,351)</text><text font-family="Arial,Arial_MSFontService,sans-serif" font-weight="400" font-size="128" transform="matrix(1 0 0 1 6870.42 3605)">-</text><text font-family="Arial,Arial_MSFontService,sans-serif" font-weight="400" font-size="128" transform="matrix(1 0 0 1 6973.54 3605)">Missing</text><text font-family="Arial,Arial_MSFontService,sans-serif" font-weight="400" font-size="128" transform="matrix(1 0 0 1 7445.05 3605)">value (n=5,009)</text><path d="M7612.16 3831 7612.16 4157.05 7601.84 4157.05 7601.84 3831ZM7622.47 4151.89 7607 4182.83 7591.53 4151.89Z"/><text font-family="Arial,Arial_MSFontService,sans-serif" font-weight="700" font-size="147" transform="matrix(1 0 0 1 6036.81 5292)">Survived</text><text font-family="Arial,Arial_MSFontService,sans-serif" font-weight="400" font-size="147" transform="matrix(1 0 0 1 6696.24 5292)">7 days </text><text font-family="Arial,Arial_MSFontService,sans-serif" font-weight="400" font-size="147" transform="matrix(1 0 0 1 5939.14 5468)">after ICU admission</text><text font-family="Arial,Arial_MSFontService,sans-serif" font-weight="400" font-size="147" transform="matrix(1 0 0 1 6185.5 5644)">(n=121,705)</text><text font-family="Arial,Arial_MSFontService,sans-serif" font-weight="400" font-size="147" transform="matrix(1 0 0 1 6533.26 5820)">&amp; </text><text font-family="Arial,Arial_MSFontService,sans-serif" font-weight="400" font-size="147" transform="matrix(1 0 0 1 6226.17 5996)">(n=79,971)</text><text font-family="Arial,Arial_MSFontService,sans-serif" font-weight="400" font-size="147" transform="matrix(1 0 0 1 6533.26 6172)">&amp;</text><text font-family="Arial,Arial_MSFontService,sans-serif" font-weight="400" font-size="147" transform="matrix(1 0 0 1 6266.85 6348)">(n=6,631)</text><text font-family="Arial,Arial_MSFontService,sans-serif" font-weight="700" font-size="147" transform="matrix(1 0 0 1 8236.26 5292)">Died</text><text font-family="Arial,Arial_MSFontService,sans-serif" font-weight="400" font-size="147" transform="matrix(1 0 0 1 8594.34 5292)">7 days </text><text font-family="Arial,Arial_MSFontService,sans-serif" font-weight="400" font-size="147" transform="matrix(1 0 0 1 7987.89 5468)">after ICU admission</text><text font-family="Arial,Arial_MSFontService,sans-serif" font-weight="400" font-size="147" transform="matrix(1 0 0 1 8315.6 5644)">(n=2,315)</text><text font-family="Arial,Arial_MSFontService,sans-serif" font-weight="400" font-size="147" transform="matrix(1 0 0 1 8582.01 5820)">&amp;</text><text font-family="Arial,Arial_MSFontService,sans-serif" font-weight="400" font-size="147" transform="matrix(1 0 0 1 8315.6 5996)">(n=4,955)</text><text font-family="Arial,Arial_MSFontService,sans-serif" font-weight="400" font-size="147" transform="matrix(1 0 0 1 8582.01 6172)">&amp;</text><text font-family="Arial,Arial_MSFontService,sans-serif" font-weight="400" font-size="147" transform="matrix(1 0 0 1 8417.31 6348)">(n=42)</text><path d="M7611.72 4637 7611.72 4776.85C7611.72 4779.7 7609.41 4782.01 7606.56 4782.01L6566 4782.01 6571.16 4776.85 6571.16 4890.93 6560.84 4890.93 6560.84 4776.85C6560.84 4774.01 6563.15 4771.7 6566 4771.7L7606.56 4771.7 7601.4 4776.85 7601.4 4637ZM6581.47 4885.77 6566 4916.71 6550.53 4885.77Z"/><path d="M0-5.15625 144.318-5.15625C147.165-5.15625 149.474-2.84772 149.474 0L149.474 1033.36 144.318 1028.2 262.854 1028.2 262.854 1038.51 144.318 1038.51C141.47 1038.51 139.161 1036.2 139.161 1033.36L139.161 0 144.318 5.15625 0 5.15625ZM257.698 1017.89 288.635 1033.36 257.698 1048.82Z" transform="matrix(1.83697e-16 1 1 -1.83697e-16 7607 4637)"/><g><g><g><path d="M133.936 324.365C119.019 323.604 101.69 322.08 88.2325 320.239 77.9493 318.843 76.9971 318.589 75.6641 317.066 73.9502 315.034 73.8868 313.574 75.6006 311.416 77.1875 309.448 79.4092 309.321 88.8672 310.718 92.3585 311.226 101.182 312.241 108.418 312.94 178.433 319.541 259.873 312.305 291.802 296.69 297.896 293.643 302.783 289.39 302.783 286.914 302.783 283.613 294.531 277.837 284.185 273.965 271.743 269.268 248.257 264.38 225.977 261.904 188.779 257.715 136.157 257.715 99.0235 261.904 70.9034 265.015 47.2266 270.537 33.8965 277.012 26.5332 280.63 22.2168 284.312 22.2168 287.041 22.2168 289.326 27.8662 294.151 33.7696 296.944 38.9746 299.419 52.3682 304.053 54.336 304.053 55.7325 304.053 59.0332 307.481 59.0332 309.004 59.0332 309.702 58.3985 311.035 57.6368 311.987 56.3672 313.574 55.9864 313.701 53.0664 313.384 48.75 312.94 37.2608 309.068 30.1514 305.64 23.6768 302.593 19.5508 299.737 16.6309 296.372 12.3779 291.485 12.6953 302.339 12.6953 162.373 12.7588 43.3545 12.8223 35.1026 13.8379 32.8809 18.1543 23.7402 32.1192 16.4404 56.8116 10.4736 106.895-1.65039 189.351-3.42774 247.876 6.34766 283.931 12.3779 305.894 21.582 311.099 32.6904 312.241 35.166 312.305 39.6094 312.305 162.437L312.305 289.644 310.908 292.437C303.418 307.481 267.3 318.399 209.346 323.096 191.001 324.619 152.217 325.254 133.936 324.365ZM39.2285 264.444C97.627 244.258 222.612 243.75 282.725 263.491 287.866 265.205 294.531 267.871 297.451 269.395L302.783 272.251 302.783 237.593C302.783 197.793 303.355 201.284 296.245 196.714 279.107 185.606 232.959 177.29 180.4 175.894 113.877 174.053 50.2735 182.813 28.7549 196.714 21.6455 201.284 22.2168 197.793 22.2168 237.593L22.2168 272.251 27.4854 269.458C30.3418 267.935 35.6104 265.713 39.2285 264.444ZM25.835 187.319C40.2442 178.496 75.918 170.816 117.749 167.578 148.662 165.166 194.175 165.864 225.025 169.229 257.905 172.783 287.105 179.893 299.165 187.319 300.816 188.335 302.276 189.16 302.466 189.16 302.656 189.16 302.783 173.482 302.783 154.248L302.783 119.336 300.371 116.924C291.421 107.974 261.079 99.5948 222.803 95.5958 201.919 93.3741 193.477 92.9932 162.5 92.9932 131.524 92.9932 123.081 93.3741 102.197 95.5958 63.9209 99.5948 33.5791 107.974 24.6289 116.924L22.2168 119.336 22.2168 154.248C22.2168 173.482 22.3438 189.16 22.5342 189.16 22.7246 189.16 24.1846 188.335 25.835 187.319ZM26.7871 103.848C43.9258 94.5167 76.5528 87.7247 121.24 84.2969 135.269 83.2178 189.795 83.2178 203.76 84.2969 248.574 87.7881 281.138 94.5167 298.213 103.848 300.371 105.054 302.339 106.006 302.466 106.006 302.656 106.006 302.783 90.4542 302.783 71.4112L302.783 36.8164 300.625 34.4678C291.548 24.4385 257.842 15.6787 213.916 11.8066 149.233 6.09375 76.1084 11.8066 40.3076 25.3272 32.1192 28.4375 27.3584 31.167 24.375 34.4678L22.2168 36.8164 22.2168 71.4112C22.2168 90.4542 22.3438 106.006 22.5342 106.006 22.6611 106.006 24.6289 105.054 26.7871 103.848Z" transform="matrix(1 0 0 -1 2064 1093)"/><path d="M244.258 237.466C232.261 232.642 228.389 217.788 236.514 208.267 240.195 204.014 243.687 202.3 249.527 201.983 254.224 201.729 254.859 201.856 258.667 203.696 269.712 209.155 272.569 223.057 264.444 232.134 260.762 236.196 256.763 238.164 251.431 238.482 248.32 238.609 246.48 238.355 244.258 237.466ZM255.049 227.881C262.857 223.12 259.873 211.377 250.796 211.377 245.464 211.377 241.846 214.932 241.846 220.264 241.846 227.119 249.273 231.372 255.049 227.881Z" transform="matrix(1 0 0 -1 2064 1093)"/><path d="M57.7637 225.786C54.8438 224.326 54.3994 219.185 57.1289 217.725 60.4297 215.947 85.9473 211.694 104.102 209.854 130.317 207.188 173.926 206.426 199.317 208.14 213.408 209.092 214.551 209.536 214.551 213.726 214.551 215.059 214.043 216.265 213.154 217.153 211.821 218.359 211.25 218.486 206.489 218.106 167.515 215.249 119.844 216.646 86.3282 221.597 78.5206 222.803 62.6514 225.659 60.3028 226.294 59.795 226.485 58.6524 226.231 57.7637 225.786Z" transform="matrix(1 0 0 -1 2064 1093)"/><path d="M244.258 155.581C232.261 150.757 228.389 135.903 236.514 126.382 240.195 122.129 243.687 120.415 249.527 120.098 254.224 119.844 254.859 119.971 258.667 121.812 269.712 127.271 272.569 141.172 264.444 150.249 260.762 154.312 256.763 156.279 251.431 156.597 248.32 156.724 246.48 156.47 244.258 155.581ZM255.049 145.996C262.857 141.235 259.873 129.492 250.796 129.492 245.464 129.492 241.846 133.047 241.846 138.379 241.846 145.234 249.273 149.487 255.049 145.996Z" transform="matrix(1 0 0 -1 2064 1093)"/><path d="M56.875 143.394C54.5899 141.616 54.7803 138.125 57.1289 136.411 61.4453 133.364 96.294 128.35 127.588 126.318 141.743 125.43 184.717 125.557 199.824 126.509 210.615 127.271 212.202 127.524 213.345 128.667 215.186 130.508 215.122 133.809 213.218 135.396 211.821 136.538 211.123 136.602 202.808 136.157 150.884 133.364 100.23 136.094 66.46 143.457 59.2871 145.044 58.9698 145.044 56.875 143.394Z" transform="matrix(1 0 0 -1 2064 1093)"/><path d="M246.099 74.2676C240.259 72.8077 234.419 67.0948 232.896 61.3184 231.943 57.8907 232.515 51.0352 233.911 48.2422 235.435 45.1953 239.116 41.3867 242.036 39.9268 249.907 35.8008 260.254 38.1494 265.332 45.1319 272.315 54.7803 268.887 68.2373 258.286 72.9346 254.795 74.5215 249.4 75.0928 246.099 74.2676ZM255.747 63.667C261.016 59.795 260.635 51.3526 254.986 48.4961 248.638 45.1953 241.846 49.3848 241.846 56.6211 241.846 63.4766 250.225 67.6661 255.747 63.667Z" transform="matrix(1 0 0 -1 2064 1093)"/><path d="M56.875 60.2393C54.8438 58.6524 54.5899 55.3516 56.4307 53.7012 59.4776 50.9082 86.4551 46.4014 113.623 44.1162 128.54 42.8467 163.389 41.7676 165.357 42.5293 167.07 43.1641 168.848 45.5127 168.848 47.0996 168.848 47.6709 168.213 48.9405 167.451 49.8291L165.991 51.4795 145.996 52.0508C113.56 53.003 89.9463 55.4785 66.2696 60.3028 58.7793 61.8897 58.9698 61.8897 56.875 60.2393Z" transform="matrix(1 0 0 -1 2064 1093)"/><path d="M194.556 52.6221C188.145 52.1778 187.446 51.9873 186.177 50.4639 184.526 48.5596 184.4 47.7344 185.415 45.4492 186.558 43.0371 188.589 42.6563 198.999 43.291 210.869 43.9258 212.202 44.1797 213.535 45.6397 215.186 47.417 215.059 50.7178 213.281 52.1778 211.694 53.4473 207.505 53.5742 194.556 52.6221Z" transform="matrix(1 0 0 -1 2064 1093)"/></g></g></g><text font-family="Arial,Arial_MSFontService,sans-serif" font-weight="700" font-size="128" transform="matrix(1 0 0 1 2489.84 978)">eICU</text><text font-family="Arial,Arial_MSFontService,sans-serif" font-weight="700" font-size="128" transform="matrix(1 0 0 1 2782.61 978)">-</text><text font-family="Arial,Arial_MSFontService,sans-serif" font-weight="700" font-size="128" transform="matrix(1 0 0 1 2825.57 978)">CRD</text><g><g><g><path d="M133.935 324.365C119.019 323.603 101.689 322.08 88.2324 320.239 77.9492 318.843 76.997 318.589 75.664 317.065 73.9502 315.034 73.8867 313.574 75.6005 311.416 77.1875 309.448 79.4091 309.321 88.8671 310.718 92.3584 311.225 101.182 312.241 108.418 312.939 178.433 319.541 259.873 312.305 291.802 296.689 297.895 293.642 302.783 289.39 302.783 286.914 302.783 283.613 294.531 277.837 284.184 273.965 271.743 269.267 248.257 264.38 225.976 261.904 188.779 257.715 136.157 257.715 99.0234 261.904 70.9033 265.015 47.2265 270.537 33.8965 277.012 26.5332 280.63 22.2168 284.311 22.2168 287.041 22.2168 289.326 27.8662 294.15 33.7695 296.943 38.9746 299.419 52.3681 304.053 54.3359 304.053 55.7324 304.053 59.0332 307.48 59.0332 309.004 59.0332 309.702 58.3984 311.035 57.6367 311.987 56.3672 313.574 55.9863 313.701 53.0664 313.384 48.75 312.939 37.2607 309.067 30.1514 305.639 23.6767 302.593 19.5508 299.736 16.6309 296.372 12.3779 291.484 12.6953 302.339 12.6953 162.373 12.7588 43.3545 12.8223 35.1025 13.8379 32.8808 18.1543 23.7402 32.1191 16.4404 56.8115 10.4736 106.894-1.65039 189.35-3.42773 247.876 6.34765 283.931 12.3779 305.893 21.582 311.098 32.6904 312.241 35.166 312.305 39.6094 312.305 162.436L312.305 289.643 310.908 292.436C303.418 307.48 267.3 318.398 209.346 323.096 191.001 324.619 152.217 325.254 133.935 324.365ZM39.2285 264.443C97.6269 244.258 222.612 243.75 282.724 263.491 287.866 265.205 294.531 267.871 297.451 269.394L302.783 272.251 302.783 237.593C302.783 197.793 303.354 201.284 296.245 196.714 279.106 185.605 232.959 177.29 180.4 175.893 113.877 174.053 50.2734 182.812 28.7549 196.714 21.6455 201.284 22.2168 197.793 22.2168 237.593L22.2168 272.251 27.4853 269.458C30.3418 267.934 35.6103 265.713 39.2285 264.443ZM25.8349 187.319C40.2441 178.496 75.9179 170.815 117.749 167.578 148.662 165.166 194.175 165.864 225.024 169.228 257.905 172.783 287.104 179.892 299.165 187.319 300.815 188.335 302.275 189.16 302.466 189.16 302.656 189.16 302.783 173.481 302.783 154.248L302.783 119.336 300.371 116.924C291.421 107.974 261.079 99.5947 222.803 95.5957 201.919 93.374 193.476 92.9931 162.5 92.9931 131.523 92.9931 123.081 93.374 102.197 95.5957 63.9209 99.5947 33.5791 107.974 24.6289 116.924L22.2168 119.336 22.2168 154.248C22.2168 173.481 22.3437 189.16 22.5342 189.16 22.7246 189.16 24.1846 188.335 25.8349 187.319ZM26.7871 103.848C43.9258 94.5166 76.5527 87.7246 121.24 84.2968 135.268 83.2177 189.795 83.2177 203.76 84.2968 248.574 87.788 281.138 94.5166 298.213 103.848 300.371 105.054 302.339 106.006 302.466 106.006 302.656 106.006 302.783 90.4541 302.783 71.4111L302.783 36.8164 300.625 34.4678C291.548 24.4385 257.842 15.6787 213.916 11.8066 149.233 6.09375 76.1084 11.8066 40.3076 25.3271 32.1191 28.4375 27.3584 31.167 24.375 34.4678L22.2168 36.8164 22.2168 71.4111C22.2168 90.4541 22.3437 106.006 22.5342 106.006 22.6611 106.006 24.6289 105.054 26.7871 103.848Z" transform="matrix(1 0 0 -1 7011 1093)"/><path d="M244.258 237.466C232.261 232.641 228.389 217.788 236.514 208.267 240.195 204.014 243.686 202.3 249.526 201.982 254.224 201.728 254.858 201.855 258.667 203.696 269.712 209.155 272.568 223.057 264.443 232.134 260.762 236.196 256.763 238.164 251.431 238.481 248.32 238.608 246.479 238.354 244.258 237.466ZM255.049 227.881C262.856 223.12 259.873 211.377 250.796 211.377 245.464 211.377 241.846 214.932 241.846 220.264 241.846 227.119 249.272 231.372 255.049 227.881Z" transform="matrix(1 0 0 -1 7011 1093)"/><path d="M57.7636 225.786C54.8437 224.326 54.3994 219.184 57.1289 217.725 60.4297 215.947 85.9472 211.694 104.102 209.853 130.317 207.187 173.926 206.426 199.316 208.14 213.408 209.092 214.551 209.536 214.551 213.725 214.551 215.058 214.043 216.265 213.154 217.153 211.821 218.359 211.25 218.486 206.489 218.105 167.515 215.249 119.844 216.645 86.3281 221.597 78.5205 222.803 62.6513 225.659 60.3027 226.294 59.7949 226.484 58.6523 226.23 57.7636 225.786Z" transform="matrix(1 0 0 -1 7011 1093)"/><path d="M244.258 155.581C232.261 150.757 228.389 135.903 236.514 126.382 240.195 122.129 243.686 120.415 249.526 120.098 254.224 119.844 254.858 119.971 258.667 121.811 269.712 127.27 272.568 141.172 264.443 150.249 260.762 154.311 256.763 156.279 251.431 156.597 248.32 156.724 246.479 156.47 244.258 155.581ZM255.049 145.996C262.856 141.235 259.873 129.492 250.796 129.492 245.464 129.492 241.846 133.047 241.846 138.379 241.846 145.234 249.272 149.487 255.049 145.996Z" transform="matrix(1 0 0 -1 7011 1093)"/><path d="M56.875 143.393C54.5898 141.616 54.7802 138.125 57.1289 136.411 61.4453 133.364 96.2939 128.35 127.588 126.318 141.743 125.43 184.717 125.557 199.824 126.509 210.615 127.27 212.202 127.524 213.345 128.667 215.185 130.508 215.122 133.809 213.218 135.395 211.821 136.538 211.123 136.602 202.808 136.157 150.884 133.364 100.229 136.094 66.4599 143.457 59.2871 145.044 58.9697 145.044 56.875 143.393Z" transform="matrix(1 0 0 -1 7011 1093)"/><path d="M246.099 74.2675C240.259 72.8076 234.419 67.0947 232.895 61.3183 231.943 57.8906 232.515 51.0351 233.911 48.2422 235.434 45.1953 239.116 41.3867 242.036 39.9267 249.907 35.8008 260.254 38.1494 265.332 45.1318 272.314 54.7802 268.887 68.2373 258.286 72.9345 254.795 74.5214 249.399 75.0927 246.099 74.2675ZM255.747 63.667C261.016 59.7949 260.635 51.3525 254.985 48.4961 248.638 45.1953 241.846 49.3847 241.846 56.6211 241.846 63.4765 250.224 67.666 255.747 63.667Z" transform="matrix(1 0 0 -1 7011 1093)"/><path d="M56.875 60.2392C54.8437 58.6523 54.5898 55.3515 56.4306 53.7011 59.4775 50.9082 86.455 46.4013 113.623 44.1162 128.54 42.8467 163.389 41.7676 165.356 42.5293 167.07 43.164 168.848 45.5127 168.848 47.0996 168.848 47.6709 168.213 48.9404 167.451 49.8291L165.991 51.4795 145.996 52.0508C113.56 53.0029 89.9462 55.4785 66.2695 60.3027 58.7793 61.8896 58.9697 61.8896 56.875 60.2392Z" transform="matrix(1 0 0 -1 7011 1093)"/><path d="M194.556 52.622C188.144 52.1777 187.446 51.9873 186.177 50.4638 184.526 48.5595 184.399 47.7344 185.415 45.4492 186.558 43.0371 188.589 42.6562 198.999 43.291 210.869 43.9258 212.202 44.1797 213.535 45.6396 215.185 47.417 215.058 50.7178 213.281 52.1777 211.694 53.4472 207.505 53.5742 194.556 52.622Z" transform="matrix(1 0 0 -1 7011 1093)"/></g></g></g><text font-family="Arial,Arial_MSFontService,sans-serif" font-weight="700" font-size="128" transform="matrix(1 0 0 1 7473.2 978)">MIMIC</text><text font-family="Arial,Arial_MSFontService,sans-serif" font-weight="700" font-size="128" transform="matrix(1 0 0 1 7851.33 978)">-</text><text font-family="Arial,Arial_MSFontService,sans-serif" font-weight="700" font-size="128" transform="matrix(1 0 0 1 7894.3 978)">IV</text><g><g><g><path d="M133.935 324.365C119.019 323.603 101.689 322.08 88.2324 320.239 77.9492 318.843 76.997 318.589 75.664 317.065 73.9502 315.034 73.8867 313.574 75.6005 311.416 77.1875 309.448 79.4091 309.321 88.8671 310.718 92.3584 311.225 101.182 312.241 108.418 312.939 178.433 319.541 259.873 312.305 291.802 296.689 297.895 293.642 302.783 289.39 302.783 286.914 302.783 283.613 294.531 277.837 284.184 273.965 271.743 269.267 248.257 264.38 225.976 261.904 188.779 257.715 136.157 257.715 99.0234 261.904 70.9033 265.015 47.2265 270.537 33.8965 277.012 26.5332 280.63 22.2168 284.311 22.2168 287.041 22.2168 289.326 27.8662 294.15 33.7695 296.943 38.9746 299.419 52.3681 304.053 54.3359 304.053 55.7324 304.053 59.0332 307.48 59.0332 309.004 59.0332 309.702 58.3984 311.035 57.6367 311.987 56.3672 313.574 55.9863 313.701 53.0664 313.384 48.75 312.939 37.2607 309.067 30.1514 305.639 23.6767 302.593 19.5508 299.736 16.6309 296.372 12.3779 291.484 12.6953 302.339 12.6953 162.373 12.7588 43.3545 12.8223 35.1025 13.8379 32.8808 18.1543 23.7402 32.1191 16.4404 56.8115 10.4736 106.894-1.65039 189.35-3.42773 247.876 6.34765 283.931 12.3779 305.893 21.582 311.098 32.6904 312.241 35.166 312.305 39.6094 312.305 162.436L312.305 289.643 310.908 292.436C303.418 307.48 267.3 318.398 209.346 323.096 191.001 324.619 152.217 325.254 133.935 324.365ZM39.2285 264.443C97.6269 244.258 222.612 243.75 282.724 263.491 287.866 265.205 294.531 267.871 297.451 269.394L302.783 272.251 302.783 237.593C302.783 197.793 303.354 201.284 296.245 196.714 279.106 185.605 232.959 177.29 180.4 175.893 113.877 174.053 50.2734 182.812 28.7549 196.714 21.6455 201.284 22.2168 197.793 22.2168 237.593L22.2168 272.251 27.4853 269.458C30.3418 267.934 35.6103 265.713 39.2285 264.443ZM25.8349 187.319C40.2441 178.496 75.9179 170.815 117.749 167.578 148.662 165.166 194.175 165.864 225.024 169.228 257.905 172.783 287.104 179.892 299.165 187.319 300.815 188.335 302.275 189.16 302.466 189.16 302.656 189.16 302.783 173.481 302.783 154.248L302.783 119.336 300.371 116.924C291.421 107.974 261.079 99.5947 222.803 95.5957 201.919 93.374 193.476 92.9931 162.5 92.9931 131.523 92.9931 123.081 93.374 102.197 95.5957 63.9209 99.5947 33.5791 107.974 24.6289 116.924L22.2168 119.336 22.2168 154.248C22.2168 173.481 22.3437 189.16 22.5342 189.16 22.7246 189.16 24.1846 188.335 25.8349 187.319ZM26.7871 103.848C43.9258 94.5166 76.5527 87.7246 121.24 84.2968 135.268 83.2177 189.795 83.2177 203.76 84.2968 248.574 87.788 281.138 94.5166 298.213 103.848 300.371 105.054 302.339 106.006 302.466 106.006 302.656 106.006 302.783 90.4541 302.783 71.4111L302.783 36.8164 300.625 34.4678C291.548 24.4385 257.842 15.6787 213.916 11.8066 149.233 6.09375 76.1084 11.8066 40.3076 25.3271 32.1191 28.4375 27.3584 31.167 24.375 34.4678L22.2168 36.8164 22.2168 71.4111C22.2168 90.4541 22.3437 106.006 22.5342 106.006 22.6611 106.006 24.6289 105.054 26.7871 103.848Z" transform="matrix(1 0 0 -1 11935 1093)"/><path d="M244.258 237.466C232.261 232.641 228.389 217.788 236.514 208.267 240.195 204.014 243.686 202.3 249.526 201.982 254.224 201.728 254.858 201.855 258.667 203.696 269.712 209.155 272.568 223.057 264.443 232.134 260.762 236.196 256.763 238.164 251.431 238.481 248.32 238.608 246.479 238.354 244.258 237.466ZM255.049 227.881C262.856 223.12 259.873 211.377 250.796 211.377 245.464 211.377 241.846 214.932 241.846 220.264 241.846 227.119 249.272 231.372 255.049 227.881Z" transform="matrix(1 0 0 -1 11935 1093)"/><path d="M57.7636 225.786C54.8437 224.326 54.3994 219.184 57.1289 217.725 60.4297 215.947 85.9472 211.694 104.102 209.853 130.317 207.187 173.926 206.426 199.316 208.14 213.408 209.092 214.551 209.536 214.551 213.725 214.551 215.058 214.043 216.265 213.154 217.153 211.821 218.359 211.25 218.486 206.489 218.105 167.515 215.249 119.844 216.645 86.3281 221.597 78.5205 222.803 62.6513 225.659 60.3027 226.294 59.7949 226.484 58.6523 226.23 57.7636 225.786Z" transform="matrix(1 0 0 -1 11935 1093)"/><path d="M244.258 155.581C232.261 150.757 228.389 135.903 236.514 126.382 240.195 122.129 243.686 120.415 249.526 120.098 254.224 119.844 254.858 119.971 258.667 121.811 269.712 127.27 272.568 141.172 264.443 150.249 260.762 154.311 256.763 156.279 251.431 156.597 248.32 156.724 246.479 156.47 244.258 155.581ZM255.049 145.996C262.856 141.235 259.873 129.492 250.796 129.492 245.464 129.492 241.846 133.047 241.846 138.379 241.846 145.234 249.272 149.487 255.049 145.996Z" transform="matrix(1 0 0 -1 11935 1093)"/><path d="M56.875 143.393C54.5898 141.616 54.7802 138.125 57.1289 136.411 61.4453 133.364 96.2939 128.35 127.588 126.318 141.743 125.43 184.717 125.557 199.824 126.509 210.615 127.27 212.202 127.524 213.345 128.667 215.185 130.508 215.122 133.809 213.218 135.395 211.821 136.538 211.123 136.602 202.808 136.157 150.884 133.364 100.229 136.094 66.4599 143.457 59.2871 145.044 58.9697 145.044 56.875 143.393Z" transform="matrix(1 0 0 -1 11935 1093)"/><path d="M246.099 74.2675C240.259 72.8076 234.419 67.0947 232.895 61.3183 231.943 57.8906 232.515 51.0351 233.911 48.2422 235.434 45.1953 239.116 41.3867 242.036 39.9267 249.907 35.8008 260.254 38.1494 265.332 45.1318 272.314 54.7802 268.887 68.2373 258.286 72.9345 254.795 74.5214 249.399 75.0927 246.099 74.2675ZM255.747 63.667C261.016 59.7949 260.635 51.3525 254.985 48.4961 248.638 45.1953 241.846 49.3847 241.846 56.6211 241.846 63.4765 250.224 67.666 255.747 63.667Z" transform="matrix(1 0 0 -1 11935 1093)"/><path d="M56.875 60.2392C54.8437 58.6523 54.5898 55.3515 56.4306 53.7011 59.4775 50.9082 86.455 46.4013 113.623 44.1162 128.54 42.8467 163.389 41.7676 165.356 42.5293 167.07 43.164 168.848 45.5127 168.848 47.0996 168.848 47.6709 168.213 48.9404 167.451 49.8291L165.991 51.4795 145.996 52.0508C113.56 53.0029 89.9462 55.4785 66.2695 60.3027 58.7793 61.8896 58.9697 61.8896 56.875 60.2392Z" transform="matrix(1 0 0 -1 11935 1093)"/><path d="M194.556 52.622C188.144 52.1777 187.446 51.9873 186.177 50.4638 184.526 48.5595 184.399 47.7344 185.415 45.4492 186.558 43.0371 188.589 42.6562 198.999 43.291 210.869 43.9258 212.202 44.1797 213.535 45.6396 215.185 47.417 215.058 50.7178 213.281 52.1777 211.694 53.4472 207.505 53.5742 194.556 52.622Z" transform="matrix(1 0 0 -1 11935 1093)"/></g></g></g><text font-family="Arial,Arial_MSFontService,sans-serif" font-weight="700" font-size="128" transform="matrix(1 0 0 1 12698.5 978)">K</text><text font-family="Arial,Arial_MSFontService,sans-serif" font-weight="700" font-size="128" transform="matrix(1 0 0 1 12791.3 978)">-</text><text font-family="Arial,Arial_MSFontService,sans-serif" font-weight="700" font-size="128" transform="matrix(1 0 0 1 12834.3 978)">MIMIC</text><path d="M10170 1299.67C10170 1214.25 10239.2 1145 10324.7 1145L14736.3 1145C14821.8 1145 14891 1214.25 14891 1299.67L14891 1918.33C14891 2003.75 14821.8 2073 14736.3 2073L10324.7 2073C10239.2 2073 10170 2003.75 10170 1918.33Z" stroke="#000000" stroke-width="10.3125" stroke-linejoin="round" stroke-miterlimit="10" fill="none" fill-rule="evenodd"/><text font-family="Arial,Arial_MSFontService,sans-serif" font-weight="400" font-size="138" transform="matrix(1 0 0 1 10390.3 1413)">Patients who admitted to the ICU at Seoul National University Hospital </text><text font-family="Arial,Arial_MSFontService,sans-serif" font-weight="400" font-size="138" transform="matrix(1 0 0 1 10570.2 1578)">(SNUH) in 2023, identified from the </text><text font-family="Arial,Arial_MSFontService,sans-serif" font-weight="400" font-size="138" transform="matrix(1 0 0 1 12753 1578)">icustays</text><text font-family="Arial,Arial_MSFontService,sans-serif" font-weight="400" font-size="138" transform="matrix(1 0 0 1 13288.7 1578)">table, with available </text><text font-family="Arial,Arial_MSFontService,sans-serif" font-weight="400" font-size="138" transform="matrix(1 0 0 1 11327.6 1743)">demographic, lab, and vital information. </text><text font-family="Arial,Arial_MSFontService,sans-serif" font-weight="400" font-size="138" transform="matrix(1 0 0 1 12195.3 1908)">(n = 8,726)</text><text font-family="Arial,Arial_MSFontService,sans-serif" font-weight="700" font-size="128" transform="matrix(1 0 0 1 9272.66 2986)">Excluded (N = 2,053)</text><text font-family="Arial,Arial_MSFontService,sans-serif" font-weight="400" font-size="128" transform="matrix(1 0 0 1 9293.86 3140)">-</text><text font-family="Arial,Arial_MSFontService,sans-serif" font-weight="400" font-size="128" transform="matrix(1 0 0 1 9396.98 3140)">Age &lt; 18 (n=1,640)</text><text font-family="Arial,Arial_MSFontService,sans-serif" font-weight="400" font-size="128" transform="matrix(1 0 0 1 9179.85 3294)">-</text><text font-family="Arial,Arial_MSFontService,sans-serif" font-weight="400" font-size="128" transform="matrix(1 0 0 1 9282.97 3294)">LOS &gt; 60 days (n=116)</text><text font-family="Arial,Arial_MSFontService,sans-serif" font-weight="400" font-size="128" transform="matrix(1 0 0 1 9467.15 3448)">-</text><text font-family="Arial,Arial_MSFontService,sans-serif" font-weight="400" font-size="128" transform="matrix(1 0 0 1 9570.28 3448)">DNR</text><text font-family="Arial,Arial_MSFontService,sans-serif" font-weight="400" font-size="128" transform="matrix(1 0 0 1 9884.24 3448)">(n=131)</text><text font-family="Arial,Arial_MSFontService,sans-serif" font-weight="400" font-size="128" transform="matrix(1 0 0 1 9216.79 3602)">-</text><text font-family="Arial,Arial_MSFontService,sans-serif" font-weight="400" font-size="128" transform="matrix(1 0 0 1 9319.91 3602)">Missing</text><text font-family="Arial,Arial_MSFontService,sans-serif" font-weight="400" font-size="128" transform="matrix(1 0 0 1 9791.42 3602)">value</text><text font-family="Arial,Arial_MSFontService,sans-serif" font-weight="400" font-size="128" transform="matrix(1 0 0 1 10134.6 3602)">(n=166) </text><text font-family="Arial,Arial_MSFontService,sans-serif" font-weight="700" font-size="128" transform="matrix(1 0 0 1 5006.72 2794)">eICU</text><text font-family="Arial,Arial_MSFontService,sans-serif" font-weight="700" font-size="128" transform="matrix(1 0 0 1 5299.48 2794)">-</text><text font-family="Arial,Arial_MSFontService,sans-serif" font-weight="700" font-size="128" transform="matrix(1 0 0 1 5342.45 2794)">CRD</text><text font-family="Arial,Arial_MSFontService,sans-serif" font-weight="700" font-size="128" transform="matrix(1 0 0 1 7335.63 2807)">MIMIC</text><text font-family="Arial,Arial_MSFontService,sans-serif" font-weight="700" font-size="128" transform="matrix(1 0 0 1 7713.75 2807)">-</text><text font-family="Arial,Arial_MSFontService,sans-serif" font-weight="700" font-size="128" transform="matrix(1 0 0 1 7756.72 2807)">IV</text><text font-family="Arial,Arial_MSFontService,sans-serif" font-weight="700" font-size="128" transform="matrix(1 0 0 1 9642.48 2794)">K</text><text font-family="Arial,Arial_MSFontService,sans-serif" font-weight="700" font-size="128" transform="matrix(1 0 0 1 9735.29 2794)">-</text><text font-family="Arial,Arial_MSFontService,sans-serif" font-weight="700" font-size="128" transform="matrix(1 0 0 1 9778.26 2794)">MIMIC</text><path d="M12536.3 2073 12536.3 2287.71C12536.3 2290.55 12534 2292.86 12531.1 2292.86L7607 2292.86 7612.16 2287.71 7612.16 2476.62 7601.84 2476.62 7601.84 2287.71C7601.84 2284.86 7604.15 2282.55 7607 2282.55L12531.1 2282.55 12526 2287.71 12526 2073ZM7622.47 2471.47 7607 2502.4 7591.53 2471.47Z"/></g></svg>